<?xml version="1.0" encoding="utf-8" standalone="no"?>
<!DOCTYPE svg PUBLIC "-//W3C//DTD SVG 1.1//EN"
  "http://www.w3.org/Graphics/SVG/1.1/DTD/svg11.dtd">
<!-- Created with matplotlib (http://matplotlib.org/) -->
<svg height="360pt" version="1.1" viewBox="0 0 1152 360" width="1152pt" xmlns="http://www.w3.org/2000/svg" xmlns:xlink="http://www.w3.org/1999/xlink">
 <defs>
  <style type="text/css">
*{stroke-linecap:butt;stroke-linejoin:round;stroke-miterlimit:100000;}
  </style>
 </defs>
 <g id="figure_1">
  <g id="patch_1">
   <path d="M 0 360 
L 1152 360 
L 1152 0 
L 0 0 
z
" style="fill:#ffffff;"/>
  </g>
  <g id="axes_1">
   <g id="patch_2">
    <path d="M 144 324 
L 1036.8 324 
L 1036.8 36 
L 144 36 
z
" style="fill:#ffffff;"/>
   </g>
   <g id="patch_3">
    <path clip-path="url(#p70b1a336b5)" d="M 171.9 1137.440563 
L 199.8 1137.440563 
L 199.8 36.208417 
L 171.9 36.208417 
z
" style="fill:#f7fbff;opacity:0.7;stroke:#000000;stroke-linejoin:miter;"/>
   </g>
   <g id="patch_4">
    <path clip-path="url(#p70b1a336b5)" d="M 283.5 1137.440563 
L 311.4 1137.440563 
L 311.4 39.76887 
L 283.5 39.76887 
z
" style="fill:#f7fbff;opacity:0.7;stroke:#000000;stroke-linejoin:miter;"/>
   </g>
   <g id="patch_5">
    <path clip-path="url(#p70b1a336b5)" d="M 395.1 1137.440563 
L 423 1137.440563 
L 423 51.540565 
L 395.1 51.540565 
z
" style="fill:#f7fbff;opacity:0.7;stroke:#000000;stroke-linejoin:miter;"/>
   </g>
   <g id="patch_6">
    <path clip-path="url(#p70b1a336b5)" d="M 506.7 1137.440563 
L 534.6 1137.440563 
L 534.6 90.629646 
L 506.7 90.629646 
z
" style="fill:#f7fbff;opacity:0.7;stroke:#000000;stroke-linejoin:miter;"/>
   </g>
   <g id="patch_7">
    <path clip-path="url(#p70b1a336b5)" d="M 618.3 1137.440563 
L 646.2 1137.440563 
L 646.2 74.638603 
L 618.3 74.638603 
z
" style="fill:#f7fbff;opacity:0.7;stroke:#000000;stroke-linejoin:miter;"/>
   </g>
   <g id="patch_8">
    <path clip-path="url(#p70b1a336b5)" d="M 729.9 1137.440563 
L 757.8 1137.440563 
L 757.8 65.36999 
L 729.9 65.36999 
z
" style="fill:#f7fbff;opacity:0.7;stroke:#000000;stroke-linejoin:miter;"/>
   </g>
   <g id="patch_9">
    <path clip-path="url(#p70b1a336b5)" d="M 841.5 1137.440563 
L 869.4 1137.440563 
L 869.4 163.018894 
L 841.5 163.018894 
z
" style="fill:#f7fbff;opacity:0.7;stroke:#000000;stroke-linejoin:miter;"/>
   </g>
   <g id="patch_10">
    <path clip-path="url(#p70b1a336b5)" d="M 953.1 1137.440563 
L 981 1137.440563 
L 981 36 
L 953.1 36 
z
" style="fill:#f7fbff;opacity:0.7;stroke:#000000;stroke-linejoin:miter;"/>
   </g>
   <g id="patch_11">
    <path clip-path="url(#p70b1a336b5)" d="M 199.8 1137.440563 
L 227.7 1137.440563 
L 227.7 75.908546 
L 199.8 75.908546 
z
" style="fill:#08306b;opacity:0.7;stroke:#000000;stroke-linejoin:miter;"/>
   </g>
   <g id="patch_12">
    <path clip-path="url(#p70b1a336b5)" d="M 311.4 1137.440563 
L 339.3 1137.440563 
L 339.3 77.682629 
L 311.4 77.682629 
z
" style="fill:#08306b;opacity:0.7;stroke:#000000;stroke-linejoin:miter;"/>
   </g>
   <g id="patch_13">
    <path clip-path="url(#p70b1a336b5)" d="M 423 1137.440563 
L 450.9 1137.440563 
L 450.9 109.713966 
L 423 109.713966 
z
" style="fill:#08306b;opacity:0.7;stroke:#000000;stroke-linejoin:miter;"/>
   </g>
   <g id="patch_14">
    <path clip-path="url(#p70b1a336b5)" d="M 534.6 1137.440563 
L 562.5 1137.440563 
L 562.5 118.267807 
L 534.6 118.267807 
z
" style="fill:#08306b;opacity:0.7;stroke:#000000;stroke-linejoin:miter;"/>
   </g>
   <g id="patch_15">
    <path clip-path="url(#p70b1a336b5)" d="M 646.2 1137.440563 
L 674.1 1137.440563 
L 674.1 120.634103 
L 646.2 120.634103 
z
" style="fill:#08306b;opacity:0.7;stroke:#000000;stroke-linejoin:miter;"/>
   </g>
   <g id="patch_16">
    <path clip-path="url(#p70b1a336b5)" d="M 757.8 1137.440563 
L 785.7 1137.440563 
L 785.7 146.312895 
L 757.8 146.312895 
z
" style="fill:#08306b;opacity:0.7;stroke:#000000;stroke-linejoin:miter;"/>
   </g>
   <g id="patch_17">
    <path clip-path="url(#p70b1a336b5)" d="M 869.4 1137.440563 
L 897.3 1137.440563 
L 897.3 200.643057 
L 869.4 200.643057 
z
" style="fill:#08306b;opacity:0.7;stroke:#000000;stroke-linejoin:miter;"/>
   </g>
   <g id="patch_18">
    <path clip-path="url(#p70b1a336b5)" d="M 981 1137.440563 
L 1008.9 1137.440563 
L 1008.9 213.855944 
L 981 213.855944 
z
" style="fill:#08306b;opacity:0.7;stroke:#000000;stroke-linejoin:miter;"/>
   </g>
   <g id="LineCollection_1">
    <path clip-path="url(#p70b1a336b5)" d="M 185.85 36.794624 
L 185.85 35.62221 
" style="fill:none;stroke:#000000;"/>
    <path clip-path="url(#p70b1a336b5)" d="M 297.45 40.939133 
L 297.45 38.598608 
" style="fill:none;stroke:#000000;"/>
    <path clip-path="url(#p70b1a336b5)" d="M 409.05 54.848145 
L 409.05 48.232985 
" style="fill:none;stroke:#000000;"/>
    <path clip-path="url(#p70b1a336b5)" d="M 520.65 100.223514 
L 520.65 81.035777 
" style="fill:none;stroke:#000000;"/>
    <path clip-path="url(#p70b1a336b5)" d="M 632.25 86.832387 
L 632.25 62.44482 
" style="fill:none;stroke:#000000;"/>
    <path clip-path="url(#p70b1a336b5)" d="M 743.85 69.840945 
L 743.85 60.899035 
" style="fill:none;stroke:#000000;"/>
    <path clip-path="url(#p70b1a336b5)" d="M 855.45 179.432745 
L 855.45 146.605042 
" style="fill:none;stroke:#000000;"/>
    <path clip-path="url(#p70b1a336b5)" d="M 967.05 36 
L 967.05 36 
" style="fill:none;stroke:#000000;"/>
   </g>
   <g id="LineCollection_2">
    <path clip-path="url(#p70b1a336b5)" d="M 213.75 101.51661 
L 213.75 50.300482 
" style="fill:none;stroke:#000000;"/>
    <path clip-path="url(#p70b1a336b5)" d="M 325.35 106.831087 
L 325.35 48.53417 
" style="fill:none;stroke:#000000;"/>
    <path clip-path="url(#p70b1a336b5)" d="M 436.95 159.370978 
L 436.95 60.056954 
" style="fill:none;stroke:#000000;"/>
    <path clip-path="url(#p70b1a336b5)" d="M 548.55 173.771091 
L 548.55 62.764524 
" style="fill:none;stroke:#000000;"/>
    <path clip-path="url(#p70b1a336b5)" d="M 660.15 171.759851 
L 660.15 69.508356 
" style="fill:none;stroke:#000000;"/>
    <path clip-path="url(#p70b1a336b5)" d="M 771.75 211.946893 
L 771.75 80.678896 
" style="fill:none;stroke:#000000;"/>
    <path clip-path="url(#p70b1a336b5)" d="M 883.35 265.770049 
L 883.35 135.516065 
" style="fill:none;stroke:#000000;"/>
    <path clip-path="url(#p70b1a336b5)" d="M 994.95 275.835032 
L 994.95 151.876856 
" style="fill:none;stroke:#000000;"/>
   </g>
   <g id="line2d_1">
    <defs>
     <path d="M 3 0 
L -3 -0 
" id="m8b16da54c0" style="stroke:#000000;stroke-width:0.5;"/>
    </defs>
    <g clip-path="url(#p70b1a336b5)">
     <use style="stroke:#000000;stroke-width:0.5;" x="185.85" xlink:href="#m8b16da54c0" y="36.7946240531"/>
     <use style="stroke:#000000;stroke-width:0.5;" x="297.45" xlink:href="#m8b16da54c0" y="40.9391327515"/>
     <use style="stroke:#000000;stroke-width:0.5;" x="409.05" xlink:href="#m8b16da54c0" y="54.8481446864"/>
     <use style="stroke:#000000;stroke-width:0.5;" x="520.65" xlink:href="#m8b16da54c0" y="100.223513996"/>
     <use style="stroke:#000000;stroke-width:0.5;" x="632.25" xlink:href="#m8b16da54c0" y="86.8323870401"/>
     <use style="stroke:#000000;stroke-width:0.5;" x="743.85" xlink:href="#m8b16da54c0" y="69.8409445165"/>
     <use style="stroke:#000000;stroke-width:0.5;" x="855.45" xlink:href="#m8b16da54c0" y="179.432744919"/>
     <use style="stroke:#000000;stroke-width:0.5;" x="967.05" xlink:href="#m8b16da54c0" y="36.0"/>
    </g>
   </g>
   <g id="line2d_2">
    <g clip-path="url(#p70b1a336b5)">
     <use style="stroke:#000000;stroke-width:0.5;" x="185.85" xlink:href="#m8b16da54c0" y="35.6222097591"/>
     <use style="stroke:#000000;stroke-width:0.5;" x="297.45" xlink:href="#m8b16da54c0" y="38.598607952"/>
     <use style="stroke:#000000;stroke-width:0.5;" x="409.05" xlink:href="#m8b16da54c0" y="48.2329853192"/>
     <use style="stroke:#000000;stroke-width:0.5;" x="520.65" xlink:href="#m8b16da54c0" y="81.0357771865"/>
     <use style="stroke:#000000;stroke-width:0.5;" x="632.25" xlink:href="#m8b16da54c0" y="62.4448199057"/>
     <use style="stroke:#000000;stroke-width:0.5;" x="743.85" xlink:href="#m8b16da54c0" y="60.8990351562"/>
     <use style="stroke:#000000;stroke-width:0.5;" x="855.45" xlink:href="#m8b16da54c0" y="146.605042472"/>
     <use style="stroke:#000000;stroke-width:0.5;" x="967.05" xlink:href="#m8b16da54c0" y="36.0"/>
    </g>
   </g>
   <g id="line2d_3">
    <g clip-path="url(#p70b1a336b5)">
     <use style="stroke:#000000;stroke-width:0.5;" x="213.75" xlink:href="#m8b16da54c0" y="101.516609811"/>
     <use style="stroke:#000000;stroke-width:0.5;" x="325.35" xlink:href="#m8b16da54c0" y="106.831086858"/>
     <use style="stroke:#000000;stroke-width:0.5;" x="436.95" xlink:href="#m8b16da54c0" y="159.370978375"/>
     <use style="stroke:#000000;stroke-width:0.5;" x="548.55" xlink:href="#m8b16da54c0" y="173.771090812"/>
     <use style="stroke:#000000;stroke-width:0.5;" x="660.15" xlink:href="#m8b16da54c0" y="171.759850993"/>
     <use style="stroke:#000000;stroke-width:0.5;" x="771.75" xlink:href="#m8b16da54c0" y="211.946893065"/>
     <use style="stroke:#000000;stroke-width:0.5;" x="883.35" xlink:href="#m8b16da54c0" y="265.770049135"/>
     <use style="stroke:#000000;stroke-width:0.5;" x="994.95" xlink:href="#m8b16da54c0" y="275.835031586"/>
    </g>
   </g>
   <g id="line2d_4">
    <g clip-path="url(#p70b1a336b5)">
     <use style="stroke:#000000;stroke-width:0.5;" x="213.75" xlink:href="#m8b16da54c0" y="50.3004818827"/>
     <use style="stroke:#000000;stroke-width:0.5;" x="325.35" xlink:href="#m8b16da54c0" y="48.5341701567"/>
     <use style="stroke:#000000;stroke-width:0.5;" x="436.95" xlink:href="#m8b16da54c0" y="60.0569535137"/>
     <use style="stroke:#000000;stroke-width:0.5;" x="548.55" xlink:href="#m8b16da54c0" y="62.7645235452"/>
     <use style="stroke:#000000;stroke-width:0.5;" x="660.15" xlink:href="#m8b16da54c0" y="69.5083558982"/>
     <use style="stroke:#000000;stroke-width:0.5;" x="771.75" xlink:href="#m8b16da54c0" y="80.6788963669"/>
     <use style="stroke:#000000;stroke-width:0.5;" x="883.35" xlink:href="#m8b16da54c0" y="135.516064863"/>
     <use style="stroke:#000000;stroke-width:0.5;" x="994.95" xlink:href="#m8b16da54c0" y="151.876855855"/>
    </g>
   </g>
   <g id="patch_19">
    <path d="M 144 324 
L 1036.8 324 
" style="fill:none;stroke:#000000;stroke-linecap:square;stroke-linejoin:miter;"/>
   </g>
   <g id="patch_20">
    <path d="M 144 324 
L 144 36 
" style="fill:none;stroke:#000000;stroke-linecap:square;stroke-linejoin:miter;"/>
   </g>
   <g id="patch_21">
    <path d="M 144 36 
L 1036.8 36 
" style="fill:none;stroke:#000000;stroke-linecap:square;stroke-linejoin:miter;"/>
   </g>
   <g id="patch_22">
    <path d="M 1036.8 324 
L 1036.8 36 
" style="fill:none;stroke:#000000;stroke-linecap:square;stroke-linejoin:miter;"/>
   </g>
   <g id="matplotlib.axis_1">
    <g id="xtick_1">
     <g id="line2d_5">
      <defs>
       <path d="M 0 0 
L 0 -4 
" id="m7f5925dfd6" style="stroke:#000000;stroke-width:0.5;"/>
      </defs>
      <g>
       <use style="stroke:#000000;stroke-width:0.5;" x="199.8" xlink:href="#m7f5925dfd6" y="324.0"/>
      </g>
     </g>
     <g id="line2d_6">
      <defs>
       <path d="M 0 0 
L 0 4 
" id="m52b84d4a67" style="stroke:#000000;stroke-width:0.5;"/>
      </defs>
      <g>
       <use style="stroke:#000000;stroke-width:0.5;" x="199.8" xlink:href="#m52b84d4a67" y="36.0"/>
      </g>
     </g>
    </g>
    <g id="xtick_2">
     <g id="line2d_7">
      <g>
       <use style="stroke:#000000;stroke-width:0.5;" x="311.4" xlink:href="#m7f5925dfd6" y="324.0"/>
      </g>
     </g>
     <g id="line2d_8">
      <g>
       <use style="stroke:#000000;stroke-width:0.5;" x="311.4" xlink:href="#m52b84d4a67" y="36.0"/>
      </g>
     </g>
    </g>
    <g id="xtick_3">
     <g id="line2d_9">
      <g>
       <use style="stroke:#000000;stroke-width:0.5;" x="423.0" xlink:href="#m7f5925dfd6" y="324.0"/>
      </g>
     </g>
     <g id="line2d_10">
      <g>
       <use style="stroke:#000000;stroke-width:0.5;" x="423.0" xlink:href="#m52b84d4a67" y="36.0"/>
      </g>
     </g>
    </g>
    <g id="xtick_4">
     <g id="line2d_11">
      <g>
       <use style="stroke:#000000;stroke-width:0.5;" x="534.6" xlink:href="#m7f5925dfd6" y="324.0"/>
      </g>
     </g>
     <g id="line2d_12">
      <g>
       <use style="stroke:#000000;stroke-width:0.5;" x="534.6" xlink:href="#m52b84d4a67" y="36.0"/>
      </g>
     </g>
    </g>
    <g id="xtick_5">
     <g id="line2d_13">
      <g>
       <use style="stroke:#000000;stroke-width:0.5;" x="646.2" xlink:href="#m7f5925dfd6" y="324.0"/>
      </g>
     </g>
     <g id="line2d_14">
      <g>
       <use style="stroke:#000000;stroke-width:0.5;" x="646.2" xlink:href="#m52b84d4a67" y="36.0"/>
      </g>
     </g>
    </g>
    <g id="xtick_6">
     <g id="line2d_15">
      <g>
       <use style="stroke:#000000;stroke-width:0.5;" x="757.8" xlink:href="#m7f5925dfd6" y="324.0"/>
      </g>
     </g>
     <g id="line2d_16">
      <g>
       <use style="stroke:#000000;stroke-width:0.5;" x="757.8" xlink:href="#m52b84d4a67" y="36.0"/>
      </g>
     </g>
    </g>
    <g id="xtick_7">
     <g id="line2d_17">
      <g>
       <use style="stroke:#000000;stroke-width:0.5;" x="869.4" xlink:href="#m7f5925dfd6" y="324.0"/>
      </g>
     </g>
     <g id="line2d_18">
      <g>
       <use style="stroke:#000000;stroke-width:0.5;" x="869.4" xlink:href="#m52b84d4a67" y="36.0"/>
      </g>
     </g>
    </g>
    <g id="xtick_8">
     <g id="line2d_19">
      <g>
       <use style="stroke:#000000;stroke-width:0.5;" x="981.0" xlink:href="#m7f5925dfd6" y="324.0"/>
      </g>
     </g>
     <g id="line2d_20">
      <g>
       <use style="stroke:#000000;stroke-width:0.5;" x="981.0" xlink:href="#m52b84d4a67" y="36.0"/>
      </g>
     </g>
    </g>
   </g>
   <g id="matplotlib.axis_2">
    <g id="ytick_1">
     <g id="line2d_21">
      <path clip-path="url(#p70b1a336b5)" d="M 144 311.360141 
L 1036.8 311.360141 
" style="fill:none;stroke:#000000;stroke-dasharray:1.000000,3.000000;stroke-dashoffset:0.0;stroke-width:0.5;"/>
     </g>
     <g id="line2d_22">
      <defs>
       <path d="M 0 0 
L 4 0 
" id="mce08e2f343" style="stroke:#000000;stroke-width:0.5;"/>
      </defs>
      <g>
       <use style="stroke:#000000;stroke-width:0.5;" x="144.0" xlink:href="#mce08e2f343" y="311.360140699"/>
      </g>
     </g>
     <g id="line2d_23">
      <defs>
       <path d="M 0 0 
L -4 0 
" id="m62e1606c3d" style="stroke:#000000;stroke-width:0.5;"/>
      </defs>
      <g>
       <use style="stroke:#000000;stroke-width:0.5;" x="1036.8" xlink:href="#m62e1606c3d" y="311.360140699"/>
      </g>
     </g>
     <g id="text_1">
      <!-- 0.75 -->
      <defs>
       <path d="M 10.796875 72.90625 
L 49.515625 72.90625 
L 49.515625 64.59375 
L 19.828125 64.59375 
L 19.828125 46.734375 
Q 21.96875 47.46875 24.109375 47.828125 
Q 26.265625 48.1875 28.421875 48.1875 
Q 40.625 48.1875 47.75 41.5 
Q 54.890625 34.8125 54.890625 23.390625 
Q 54.890625 11.625 47.5625 5.09375 
Q 40.234375 -1.421875 26.90625 -1.421875 
Q 22.3125 -1.421875 17.546875 -0.640625 
Q 12.796875 0.140625 7.71875 1.703125 
L 7.71875 11.625 
Q 12.109375 9.234375 16.796875 8.0625 
Q 21.484375 6.890625 26.703125 6.890625 
Q 35.15625 6.890625 40.078125 11.328125 
Q 45.015625 15.765625 45.015625 23.390625 
Q 45.015625 31 40.078125 35.4375 
Q 35.15625 39.890625 26.703125 39.890625 
Q 22.75 39.890625 18.8125 39.015625 
Q 14.890625 38.140625 10.796875 36.28125 
z
" id="BitstreamVeraSans-Roman-35"/>
       <path d="M 8.203125 72.90625 
L 55.078125 72.90625 
L 55.078125 68.703125 
L 28.609375 0 
L 18.3125 0 
L 43.21875 64.59375 
L 8.203125 64.59375 
z
" id="BitstreamVeraSans-Roman-37"/>
       <path d="M 31.78125 66.40625 
Q 24.171875 66.40625 20.328125 58.90625 
Q 16.5 51.421875 16.5 36.375 
Q 16.5 21.390625 20.328125 13.890625 
Q 24.171875 6.390625 31.78125 6.390625 
Q 39.453125 6.390625 43.28125 13.890625 
Q 47.125 21.390625 47.125 36.375 
Q 47.125 51.421875 43.28125 58.90625 
Q 39.453125 66.40625 31.78125 66.40625 
M 31.78125 74.21875 
Q 44.046875 74.21875 50.515625 64.515625 
Q 56.984375 54.828125 56.984375 36.375 
Q 56.984375 17.96875 50.515625 8.265625 
Q 44.046875 -1.421875 31.78125 -1.421875 
Q 19.53125 -1.421875 13.0625 8.265625 
Q 6.59375 17.96875 6.59375 36.375 
Q 6.59375 54.828125 13.0625 64.515625 
Q 19.53125 74.21875 31.78125 74.21875 
" id="BitstreamVeraSans-Roman-30"/>
       <path d="M 10.6875 12.40625 
L 21 12.40625 
L 21 0 
L 10.6875 0 
z
" id="BitstreamVeraSans-Roman-2e"/>
      </defs>
      <g transform="translate(113.28125 314.671390699)scale(0.12 -0.12)">
       <use xlink:href="#BitstreamVeraSans-Roman-30"/>
       <use x="63.623046875" xlink:href="#BitstreamVeraSans-Roman-2e"/>
       <use x="95.41015625" xlink:href="#BitstreamVeraSans-Roman-37"/>
       <use x="159.033203125" xlink:href="#BitstreamVeraSans-Roman-35"/>
      </g>
     </g>
    </g>
    <g id="ytick_2">
     <g id="line2d_24">
      <path clip-path="url(#p70b1a336b5)" d="M 144 256.288113 
L 1036.8 256.288113 
" style="fill:none;stroke:#000000;stroke-dasharray:1.000000,3.000000;stroke-dashoffset:0.0;stroke-width:0.5;"/>
     </g>
     <g id="line2d_25">
      <g>
       <use style="stroke:#000000;stroke-width:0.5;" x="144.0" xlink:href="#mce08e2f343" y="256.288112559"/>
      </g>
     </g>
     <g id="line2d_26">
      <g>
       <use style="stroke:#000000;stroke-width:0.5;" x="1036.8" xlink:href="#m62e1606c3d" y="256.288112559"/>
      </g>
     </g>
     <g id="text_2">
      <!-- 0.80 -->
      <defs>
       <path d="M 31.78125 34.625 
Q 24.75 34.625 20.71875 30.859375 
Q 16.703125 27.09375 16.703125 20.515625 
Q 16.703125 13.921875 20.71875 10.15625 
Q 24.75 6.390625 31.78125 6.390625 
Q 38.8125 6.390625 42.859375 10.171875 
Q 46.921875 13.96875 46.921875 20.515625 
Q 46.921875 27.09375 42.890625 30.859375 
Q 38.875 34.625 31.78125 34.625 
M 21.921875 38.8125 
Q 15.578125 40.375 12.03125 44.71875 
Q 8.5 49.078125 8.5 55.328125 
Q 8.5 64.0625 14.71875 69.140625 
Q 20.953125 74.21875 31.78125 74.21875 
Q 42.671875 74.21875 48.875 69.140625 
Q 55.078125 64.0625 55.078125 55.328125 
Q 55.078125 49.078125 51.53125 44.71875 
Q 48 40.375 41.703125 38.8125 
Q 48.828125 37.15625 52.796875 32.3125 
Q 56.78125 27.484375 56.78125 20.515625 
Q 56.78125 9.90625 50.3125 4.234375 
Q 43.84375 -1.421875 31.78125 -1.421875 
Q 19.734375 -1.421875 13.25 4.234375 
Q 6.78125 9.90625 6.78125 20.515625 
Q 6.78125 27.484375 10.78125 32.3125 
Q 14.796875 37.15625 21.921875 38.8125 
M 18.3125 54.390625 
Q 18.3125 48.734375 21.84375 45.5625 
Q 25.390625 42.390625 31.78125 42.390625 
Q 38.140625 42.390625 41.71875 45.5625 
Q 45.3125 48.734375 45.3125 54.390625 
Q 45.3125 60.0625 41.71875 63.234375 
Q 38.140625 66.40625 31.78125 66.40625 
Q 25.390625 66.40625 21.84375 63.234375 
Q 18.3125 60.0625 18.3125 54.390625 
" id="BitstreamVeraSans-Roman-38"/>
      </defs>
      <g transform="translate(113.28125 259.599362559)scale(0.12 -0.12)">
       <use xlink:href="#BitstreamVeraSans-Roman-30"/>
       <use x="63.623046875" xlink:href="#BitstreamVeraSans-Roman-2e"/>
       <use x="95.41015625" xlink:href="#BitstreamVeraSans-Roman-38"/>
       <use x="159.033203125" xlink:href="#BitstreamVeraSans-Roman-30"/>
      </g>
     </g>
    </g>
    <g id="ytick_3">
     <g id="line2d_27">
      <path clip-path="url(#p70b1a336b5)" d="M 144 201.216084 
L 1036.8 201.216084 
" style="fill:none;stroke:#000000;stroke-dasharray:1.000000,3.000000;stroke-dashoffset:0.0;stroke-width:0.5;"/>
     </g>
     <g id="line2d_28">
      <g>
       <use style="stroke:#000000;stroke-width:0.5;" x="144.0" xlink:href="#mce08e2f343" y="201.216084419"/>
      </g>
     </g>
     <g id="line2d_29">
      <g>
       <use style="stroke:#000000;stroke-width:0.5;" x="1036.8" xlink:href="#m62e1606c3d" y="201.216084419"/>
      </g>
     </g>
     <g id="text_3">
      <!-- 0.85 -->
      <g transform="translate(113.28125 204.527334419)scale(0.12 -0.12)">
       <use xlink:href="#BitstreamVeraSans-Roman-30"/>
       <use x="63.623046875" xlink:href="#BitstreamVeraSans-Roman-2e"/>
       <use x="95.41015625" xlink:href="#BitstreamVeraSans-Roman-38"/>
       <use x="159.033203125" xlink:href="#BitstreamVeraSans-Roman-35"/>
      </g>
     </g>
    </g>
    <g id="ytick_4">
     <g id="line2d_30">
      <path clip-path="url(#p70b1a336b5)" d="M 144 146.144056 
L 1036.8 146.144056 
" style="fill:none;stroke:#000000;stroke-dasharray:1.000000,3.000000;stroke-dashoffset:0.0;stroke-width:0.5;"/>
     </g>
     <g id="line2d_31">
      <g>
       <use style="stroke:#000000;stroke-width:0.5;" x="144.0" xlink:href="#mce08e2f343" y="146.144056279"/>
      </g>
     </g>
     <g id="line2d_32">
      <g>
       <use style="stroke:#000000;stroke-width:0.5;" x="1036.8" xlink:href="#m62e1606c3d" y="146.144056279"/>
      </g>
     </g>
     <g id="text_4">
      <!-- 0.90 -->
      <defs>
       <path d="M 10.984375 1.515625 
L 10.984375 10.5 
Q 14.703125 8.734375 18.5 7.8125 
Q 22.3125 6.890625 25.984375 6.890625 
Q 35.75 6.890625 40.890625 13.453125 
Q 46.046875 20.015625 46.78125 33.40625 
Q 43.953125 29.203125 39.59375 26.953125 
Q 35.25 24.703125 29.984375 24.703125 
Q 19.046875 24.703125 12.671875 31.3125 
Q 6.296875 37.9375 6.296875 49.421875 
Q 6.296875 60.640625 12.9375 67.421875 
Q 19.578125 74.21875 30.609375 74.21875 
Q 43.265625 74.21875 49.921875 64.515625 
Q 56.59375 54.828125 56.59375 36.375 
Q 56.59375 19.140625 48.40625 8.859375 
Q 40.234375 -1.421875 26.421875 -1.421875 
Q 22.703125 -1.421875 18.890625 -0.6875 
Q 15.09375 0.046875 10.984375 1.515625 
M 30.609375 32.421875 
Q 37.25 32.421875 41.125 36.953125 
Q 45.015625 41.5 45.015625 49.421875 
Q 45.015625 57.28125 41.125 61.84375 
Q 37.25 66.40625 30.609375 66.40625 
Q 23.96875 66.40625 20.09375 61.84375 
Q 16.21875 57.28125 16.21875 49.421875 
Q 16.21875 41.5 20.09375 36.953125 
Q 23.96875 32.421875 30.609375 32.421875 
" id="BitstreamVeraSans-Roman-39"/>
      </defs>
      <g transform="translate(113.28125 149.455306279)scale(0.12 -0.12)">
       <use xlink:href="#BitstreamVeraSans-Roman-30"/>
       <use x="63.623046875" xlink:href="#BitstreamVeraSans-Roman-2e"/>
       <use x="95.41015625" xlink:href="#BitstreamVeraSans-Roman-39"/>
       <use x="159.033203125" xlink:href="#BitstreamVeraSans-Roman-30"/>
      </g>
     </g>
    </g>
    <g id="ytick_5">
     <g id="line2d_33">
      <path clip-path="url(#p70b1a336b5)" d="M 144 91.072028 
L 1036.8 91.072028 
" style="fill:none;stroke:#000000;stroke-dasharray:1.000000,3.000000;stroke-dashoffset:0.0;stroke-width:0.5;"/>
     </g>
     <g id="line2d_34">
      <g>
       <use style="stroke:#000000;stroke-width:0.5;" x="144.0" xlink:href="#mce08e2f343" y="91.0720281397"/>
      </g>
     </g>
     <g id="line2d_35">
      <g>
       <use style="stroke:#000000;stroke-width:0.5;" x="1036.8" xlink:href="#m62e1606c3d" y="91.0720281397"/>
      </g>
     </g>
     <g id="text_5">
      <!-- 0.95 -->
      <g transform="translate(113.28125 94.3832781397)scale(0.12 -0.12)">
       <use xlink:href="#BitstreamVeraSans-Roman-30"/>
       <use x="63.623046875" xlink:href="#BitstreamVeraSans-Roman-2e"/>
       <use x="95.41015625" xlink:href="#BitstreamVeraSans-Roman-39"/>
       <use x="159.033203125" xlink:href="#BitstreamVeraSans-Roman-35"/>
      </g>
     </g>
    </g>
    <g id="ytick_6">
     <g id="line2d_36">
      <path clip-path="url(#p70b1a336b5)" d="M 144 36 
L 1036.8 36 
" style="fill:none;stroke:#000000;stroke-dasharray:1.000000,3.000000;stroke-dashoffset:0.0;stroke-width:0.5;"/>
     </g>
     <g id="line2d_37">
      <g>
       <use style="stroke:#000000;stroke-width:0.5;" x="144.0" xlink:href="#mce08e2f343" y="36.0"/>
      </g>
     </g>
     <g id="line2d_38">
      <g>
       <use style="stroke:#000000;stroke-width:0.5;" x="1036.8" xlink:href="#m62e1606c3d" y="36.0"/>
      </g>
     </g>
     <g id="text_6">
      <!-- 1.00 -->
      <defs>
       <path d="M 12.40625 8.296875 
L 28.515625 8.296875 
L 28.515625 63.921875 
L 10.984375 60.40625 
L 10.984375 69.390625 
L 28.421875 72.90625 
L 38.28125 72.90625 
L 38.28125 8.296875 
L 54.390625 8.296875 
L 54.390625 0 
L 12.40625 0 
z
" id="BitstreamVeraSans-Roman-31"/>
      </defs>
      <g transform="translate(113.28125 39.31125)scale(0.12 -0.12)">
       <use xlink:href="#BitstreamVeraSans-Roman-31"/>
       <use x="63.623046875" xlink:href="#BitstreamVeraSans-Roman-2e"/>
       <use x="95.41015625" xlink:href="#BitstreamVeraSans-Roman-30"/>
       <use x="159.033203125" xlink:href="#BitstreamVeraSans-Roman-30"/>
      </g>
     </g>
    </g>
   </g>
   <g id="text_7">
    <!-- Random Forest -->
    <defs>
     <path id="BitstreamVeraSans-Roman-20"/>
     <path d="M 41.109375 46.296875 
Q 39.59375 47.171875 37.8125 47.578125 
Q 36.03125 48 33.890625 48 
Q 26.265625 48 22.1875 43.046875 
Q 18.109375 38.09375 18.109375 28.8125 
L 18.109375 0 
L 9.078125 0 
L 9.078125 54.6875 
L 18.109375 54.6875 
L 18.109375 46.1875 
Q 20.953125 51.171875 25.484375 53.578125 
Q 30.03125 56 36.53125 56 
Q 37.453125 56 38.578125 55.875 
Q 39.703125 55.765625 41.0625 55.515625 
z
" id="BitstreamVeraSans-Roman-72"/>
     <path d="M 44.28125 53.078125 
L 44.28125 44.578125 
Q 40.484375 46.53125 36.375 47.5 
Q 32.28125 48.484375 27.875 48.484375 
Q 21.1875 48.484375 17.84375 46.4375 
Q 14.5 44.390625 14.5 40.28125 
Q 14.5 37.15625 16.890625 35.375 
Q 19.28125 33.59375 26.515625 31.984375 
L 29.59375 31.296875 
Q 39.15625 29.25 43.1875 25.515625 
Q 47.21875 21.78125 47.21875 15.09375 
Q 47.21875 7.46875 41.1875 3.015625 
Q 35.15625 -1.421875 24.609375 -1.421875 
Q 20.21875 -1.421875 15.453125 -0.5625 
Q 10.6875 0.296875 5.421875 2 
L 5.421875 11.28125 
Q 10.40625 8.6875 15.234375 7.390625 
Q 20.0625 6.109375 24.8125 6.109375 
Q 31.15625 6.109375 34.5625 8.28125 
Q 37.984375 10.453125 37.984375 14.40625 
Q 37.984375 18.0625 35.515625 20.015625 
Q 33.0625 21.96875 24.703125 23.78125 
L 21.578125 24.515625 
Q 13.234375 26.265625 9.515625 29.90625 
Q 5.8125 33.546875 5.8125 39.890625 
Q 5.8125 47.609375 11.28125 51.796875 
Q 16.75 56 26.8125 56 
Q 31.78125 56 36.171875 55.265625 
Q 40.578125 54.546875 44.28125 53.078125 
" id="BitstreamVeraSans-Roman-73"/>
     <path d="M 34.28125 27.484375 
Q 23.390625 27.484375 19.1875 25 
Q 14.984375 22.515625 14.984375 16.5 
Q 14.984375 11.71875 18.140625 8.90625 
Q 21.296875 6.109375 26.703125 6.109375 
Q 34.1875 6.109375 38.703125 11.40625 
Q 43.21875 16.703125 43.21875 25.484375 
L 43.21875 27.484375 
z
M 52.203125 31.203125 
L 52.203125 0 
L 43.21875 0 
L 43.21875 8.296875 
Q 40.140625 3.328125 35.546875 0.953125 
Q 30.953125 -1.421875 24.3125 -1.421875 
Q 15.921875 -1.421875 10.953125 3.296875 
Q 6 8.015625 6 15.921875 
Q 6 25.140625 12.171875 29.828125 
Q 18.359375 34.515625 30.609375 34.515625 
L 43.21875 34.515625 
L 43.21875 35.40625 
Q 43.21875 41.609375 39.140625 45 
Q 35.0625 48.390625 27.6875 48.390625 
Q 23 48.390625 18.546875 47.265625 
Q 14.109375 46.140625 10.015625 43.890625 
L 10.015625 52.203125 
Q 14.9375 54.109375 19.578125 55.046875 
Q 24.21875 56 28.609375 56 
Q 40.484375 56 46.34375 49.84375 
Q 52.203125 43.703125 52.203125 31.203125 
" id="BitstreamVeraSans-Roman-61"/>
     <path d="M 9.8125 72.90625 
L 51.703125 72.90625 
L 51.703125 64.59375 
L 19.671875 64.59375 
L 19.671875 43.109375 
L 48.578125 43.109375 
L 48.578125 34.8125 
L 19.671875 34.8125 
L 19.671875 0 
L 9.8125 0 
z
" id="BitstreamVeraSans-Roman-46"/>
     <path d="M 30.609375 48.390625 
Q 23.390625 48.390625 19.1875 42.75 
Q 14.984375 37.109375 14.984375 27.296875 
Q 14.984375 17.484375 19.15625 11.84375 
Q 23.34375 6.203125 30.609375 6.203125 
Q 37.796875 6.203125 41.984375 11.859375 
Q 46.1875 17.53125 46.1875 27.296875 
Q 46.1875 37.015625 41.984375 42.703125 
Q 37.796875 48.390625 30.609375 48.390625 
M 30.609375 56 
Q 42.328125 56 49.015625 48.375 
Q 55.71875 40.765625 55.71875 27.296875 
Q 55.71875 13.875 49.015625 6.21875 
Q 42.328125 -1.421875 30.609375 -1.421875 
Q 18.84375 -1.421875 12.171875 6.21875 
Q 5.515625 13.875 5.515625 27.296875 
Q 5.515625 40.765625 12.171875 48.375 
Q 18.84375 56 30.609375 56 
" id="BitstreamVeraSans-Roman-6f"/>
     <path d="M 52 44.1875 
Q 55.375 50.25 60.0625 53.125 
Q 64.75 56 71.09375 56 
Q 79.640625 56 84.28125 50.015625 
Q 88.921875 44.046875 88.921875 33.015625 
L 88.921875 0 
L 79.890625 0 
L 79.890625 32.71875 
Q 79.890625 40.578125 77.09375 44.375 
Q 74.3125 48.1875 68.609375 48.1875 
Q 61.625 48.1875 57.5625 43.546875 
Q 53.515625 38.921875 53.515625 30.90625 
L 53.515625 0 
L 44.484375 0 
L 44.484375 32.71875 
Q 44.484375 40.625 41.703125 44.40625 
Q 38.921875 48.1875 33.109375 48.1875 
Q 26.21875 48.1875 22.15625 43.53125 
Q 18.109375 38.875 18.109375 30.90625 
L 18.109375 0 
L 9.078125 0 
L 9.078125 54.6875 
L 18.109375 54.6875 
L 18.109375 46.1875 
Q 21.1875 51.21875 25.484375 53.609375 
Q 29.78125 56 35.6875 56 
Q 41.65625 56 45.828125 52.96875 
Q 50 49.953125 52 44.1875 
" id="BitstreamVeraSans-Roman-6d"/>
     <path d="M 45.40625 46.390625 
L 45.40625 75.984375 
L 54.390625 75.984375 
L 54.390625 0 
L 45.40625 0 
L 45.40625 8.203125 
Q 42.578125 3.328125 38.25 0.953125 
Q 33.9375 -1.421875 27.875 -1.421875 
Q 17.96875 -1.421875 11.734375 6.484375 
Q 5.515625 14.40625 5.515625 27.296875 
Q 5.515625 40.1875 11.734375 48.09375 
Q 17.96875 56 27.875 56 
Q 33.9375 56 38.25 53.625 
Q 42.578125 51.265625 45.40625 46.390625 
M 14.796875 27.296875 
Q 14.796875 17.390625 18.875 11.75 
Q 22.953125 6.109375 30.078125 6.109375 
Q 37.203125 6.109375 41.296875 11.75 
Q 45.40625 17.390625 45.40625 27.296875 
Q 45.40625 37.203125 41.296875 42.84375 
Q 37.203125 48.484375 30.078125 48.484375 
Q 22.953125 48.484375 18.875 42.84375 
Q 14.796875 37.203125 14.796875 27.296875 
" id="BitstreamVeraSans-Roman-64"/>
     <path d="M 18.3125 70.21875 
L 18.3125 54.6875 
L 36.8125 54.6875 
L 36.8125 47.703125 
L 18.3125 47.703125 
L 18.3125 18.015625 
Q 18.3125 11.328125 20.140625 9.421875 
Q 21.96875 7.515625 27.59375 7.515625 
L 36.8125 7.515625 
L 36.8125 0 
L 27.59375 0 
Q 17.1875 0 13.234375 3.875 
Q 9.28125 7.765625 9.28125 18.015625 
L 9.28125 47.703125 
L 2.6875 47.703125 
L 2.6875 54.6875 
L 9.28125 54.6875 
L 9.28125 70.21875 
z
" id="BitstreamVeraSans-Roman-74"/>
     <path d="M 44.390625 34.1875 
Q 47.5625 33.109375 50.5625 29.59375 
Q 53.5625 26.078125 56.59375 19.921875 
L 66.609375 0 
L 56 0 
L 46.6875 18.703125 
Q 43.0625 26.03125 39.671875 28.421875 
Q 36.28125 30.8125 30.421875 30.8125 
L 19.671875 30.8125 
L 19.671875 0 
L 9.8125 0 
L 9.8125 72.90625 
L 32.078125 72.90625 
Q 44.578125 72.90625 50.734375 67.671875 
Q 56.890625 62.453125 56.890625 51.90625 
Q 56.890625 45.015625 53.6875 40.46875 
Q 50.484375 35.9375 44.390625 34.1875 
M 19.671875 64.796875 
L 19.671875 38.921875 
L 32.078125 38.921875 
Q 39.203125 38.921875 42.84375 42.21875 
Q 46.484375 45.515625 46.484375 51.90625 
Q 46.484375 58.296875 42.84375 61.546875 
Q 39.203125 64.796875 32.078125 64.796875 
z
" id="BitstreamVeraSans-Roman-52"/>
     <path d="M 56.203125 29.59375 
L 56.203125 25.203125 
L 14.890625 25.203125 
Q 15.484375 15.921875 20.484375 11.0625 
Q 25.484375 6.203125 34.421875 6.203125 
Q 39.59375 6.203125 44.453125 7.46875 
Q 49.3125 8.734375 54.109375 11.28125 
L 54.109375 2.78125 
Q 49.265625 0.734375 44.1875 -0.34375 
Q 39.109375 -1.421875 33.890625 -1.421875 
Q 20.796875 -1.421875 13.15625 6.1875 
Q 5.515625 13.8125 5.515625 26.8125 
Q 5.515625 40.234375 12.765625 48.109375 
Q 20.015625 56 32.328125 56 
Q 43.359375 56 49.78125 48.890625 
Q 56.203125 41.796875 56.203125 29.59375 
M 47.21875 32.234375 
Q 47.125 39.59375 43.09375 43.984375 
Q 39.0625 48.390625 32.421875 48.390625 
Q 24.90625 48.390625 20.390625 44.140625 
Q 15.875 39.890625 15.1875 32.171875 
z
" id="BitstreamVeraSans-Roman-65"/>
     <path d="M 54.890625 33.015625 
L 54.890625 0 
L 45.90625 0 
L 45.90625 32.71875 
Q 45.90625 40.484375 42.875 44.328125 
Q 39.84375 48.1875 33.796875 48.1875 
Q 26.515625 48.1875 22.3125 43.546875 
Q 18.109375 38.921875 18.109375 30.90625 
L 18.109375 0 
L 9.078125 0 
L 9.078125 54.6875 
L 18.109375 54.6875 
L 18.109375 46.1875 
Q 21.34375 51.125 25.703125 53.5625 
Q 30.078125 56 35.796875 56 
Q 45.21875 56 50.046875 50.171875 
Q 54.890625 44.34375 54.890625 33.015625 
" id="BitstreamVeraSans-Roman-6e"/>
    </defs>
    <g transform="translate(162.0890625 321.12)rotate(-90.0)scale(0.15 -0.15)">
     <use xlink:href="#BitstreamVeraSans-Roman-52"/>
     <use x="69.451171875" xlink:href="#BitstreamVeraSans-Roman-61"/>
     <use x="130.73046875" xlink:href="#BitstreamVeraSans-Roman-6e"/>
     <use x="194.109375" xlink:href="#BitstreamVeraSans-Roman-64"/>
     <use x="257.5859375" xlink:href="#BitstreamVeraSans-Roman-6f"/>
     <use x="318.767578125" xlink:href="#BitstreamVeraSans-Roman-6d"/>
     <use x="416.1796875" xlink:href="#BitstreamVeraSans-Roman-20"/>
     <use x="447.966796875" xlink:href="#BitstreamVeraSans-Roman-46"/>
     <use x="505.439453125" xlink:href="#BitstreamVeraSans-Roman-6f"/>
     <use x="566.62109375" xlink:href="#BitstreamVeraSans-Roman-72"/>
     <use x="607.703125" xlink:href="#BitstreamVeraSans-Roman-65"/>
     <use x="669.2265625" xlink:href="#BitstreamVeraSans-Roman-73"/>
     <use x="721.326171875" xlink:href="#BitstreamVeraSans-Roman-74"/>
    </g>
   </g>
   <g id="text_8">
    <!-- SVM -->
    <defs>
     <path d="M 9.8125 72.90625 
L 24.515625 72.90625 
L 43.109375 23.296875 
L 61.8125 72.90625 
L 76.515625 72.90625 
L 76.515625 0 
L 66.890625 0 
L 66.890625 64.015625 
L 48.09375 14.015625 
L 38.1875 14.015625 
L 19.390625 64.015625 
L 19.390625 0 
L 9.8125 0 
z
" id="BitstreamVeraSans-Roman-4d"/>
     <path d="M 28.609375 0 
L 0.78125 72.90625 
L 11.078125 72.90625 
L 34.1875 11.53125 
L 57.328125 72.90625 
L 67.578125 72.90625 
L 39.796875 0 
z
" id="BitstreamVeraSans-Roman-56"/>
     <path d="M 53.515625 70.515625 
L 53.515625 60.890625 
Q 47.90625 63.578125 42.921875 64.890625 
Q 37.9375 66.21875 33.296875 66.21875 
Q 25.25 66.21875 20.875 63.09375 
Q 16.5 59.96875 16.5 54.203125 
Q 16.5 49.359375 19.40625 46.890625 
Q 22.3125 44.4375 30.421875 42.921875 
L 36.375 41.703125 
Q 47.40625 39.59375 52.65625 34.296875 
Q 57.90625 29 57.90625 20.125 
Q 57.90625 9.515625 50.796875 4.046875 
Q 43.703125 -1.421875 29.984375 -1.421875 
Q 24.8125 -1.421875 18.96875 -0.25 
Q 13.140625 0.921875 6.890625 3.21875 
L 6.890625 13.375 
Q 12.890625 10.015625 18.65625 8.296875 
Q 24.421875 6.59375 29.984375 6.59375 
Q 38.421875 6.59375 43.015625 9.90625 
Q 47.609375 13.234375 47.609375 19.390625 
Q 47.609375 24.75 44.3125 27.78125 
Q 41.015625 30.8125 33.5 32.328125 
L 27.484375 33.5 
Q 16.453125 35.6875 11.515625 40.375 
Q 6.59375 45.0625 6.59375 53.421875 
Q 6.59375 63.09375 13.40625 68.65625 
Q 20.21875 74.21875 32.171875 74.21875 
Q 37.3125 74.21875 42.625 73.28125 
Q 47.953125 72.359375 53.515625 70.515625 
" id="BitstreamVeraSans-Roman-53"/>
    </defs>
    <g transform="translate(273.6890625 321.12)rotate(-90.0)scale(0.15 -0.15)">
     <use xlink:href="#BitstreamVeraSans-Roman-53"/>
     <use x="63.4765625" xlink:href="#BitstreamVeraSans-Roman-56"/>
     <use x="131.884765625" xlink:href="#BitstreamVeraSans-Roman-4d"/>
    </g>
   </g>
   <g id="text_9">
    <!-- Nearest Neighbors -->
    <defs>
     <path d="M 45.40625 27.984375 
Q 45.40625 37.75 41.375 43.109375 
Q 37.359375 48.484375 30.078125 48.484375 
Q 22.859375 48.484375 18.828125 43.109375 
Q 14.796875 37.75 14.796875 27.984375 
Q 14.796875 18.265625 18.828125 12.890625 
Q 22.859375 7.515625 30.078125 7.515625 
Q 37.359375 7.515625 41.375 12.890625 
Q 45.40625 18.265625 45.40625 27.984375 
M 54.390625 6.78125 
Q 54.390625 -7.171875 48.1875 -13.984375 
Q 42 -20.796875 29.203125 -20.796875 
Q 24.46875 -20.796875 20.265625 -20.09375 
Q 16.0625 -19.390625 12.109375 -17.921875 
L 12.109375 -9.1875 
Q 16.0625 -11.328125 19.921875 -12.34375 
Q 23.78125 -13.375 27.78125 -13.375 
Q 36.625 -13.375 41.015625 -8.765625 
Q 45.40625 -4.15625 45.40625 5.171875 
L 45.40625 9.625 
Q 42.625 4.78125 38.28125 2.390625 
Q 33.9375 0 27.875 0 
Q 17.828125 0 11.671875 7.65625 
Q 5.515625 15.328125 5.515625 27.984375 
Q 5.515625 40.671875 11.671875 48.328125 
Q 17.828125 56 27.875 56 
Q 33.9375 56 38.28125 53.609375 
Q 42.625 51.21875 45.40625 46.390625 
L 45.40625 54.6875 
L 54.390625 54.6875 
z
" id="BitstreamVeraSans-Roman-67"/>
     <path d="M 48.6875 27.296875 
Q 48.6875 37.203125 44.609375 42.84375 
Q 40.53125 48.484375 33.40625 48.484375 
Q 26.265625 48.484375 22.1875 42.84375 
Q 18.109375 37.203125 18.109375 27.296875 
Q 18.109375 17.390625 22.1875 11.75 
Q 26.265625 6.109375 33.40625 6.109375 
Q 40.53125 6.109375 44.609375 11.75 
Q 48.6875 17.390625 48.6875 27.296875 
M 18.109375 46.390625 
Q 20.953125 51.265625 25.265625 53.625 
Q 29.59375 56 35.59375 56 
Q 45.5625 56 51.78125 48.09375 
Q 58.015625 40.1875 58.015625 27.296875 
Q 58.015625 14.40625 51.78125 6.484375 
Q 45.5625 -1.421875 35.59375 -1.421875 
Q 29.59375 -1.421875 25.265625 0.953125 
Q 20.953125 3.328125 18.109375 8.203125 
L 18.109375 0 
L 9.078125 0 
L 9.078125 75.984375 
L 18.109375 75.984375 
z
" id="BitstreamVeraSans-Roman-62"/>
     <path d="M 9.421875 54.6875 
L 18.40625 54.6875 
L 18.40625 0 
L 9.421875 0 
z
M 9.421875 75.984375 
L 18.40625 75.984375 
L 18.40625 64.59375 
L 9.421875 64.59375 
z
" id="BitstreamVeraSans-Roman-69"/>
     <path d="M 54.890625 33.015625 
L 54.890625 0 
L 45.90625 0 
L 45.90625 32.71875 
Q 45.90625 40.484375 42.875 44.328125 
Q 39.84375 48.1875 33.796875 48.1875 
Q 26.515625 48.1875 22.3125 43.546875 
Q 18.109375 38.921875 18.109375 30.90625 
L 18.109375 0 
L 9.078125 0 
L 9.078125 75.984375 
L 18.109375 75.984375 
L 18.109375 46.1875 
Q 21.34375 51.125 25.703125 53.5625 
Q 30.078125 56 35.796875 56 
Q 45.21875 56 50.046875 50.171875 
Q 54.890625 44.34375 54.890625 33.015625 
" id="BitstreamVeraSans-Roman-68"/>
     <path d="M 9.8125 72.90625 
L 23.09375 72.90625 
L 55.421875 11.921875 
L 55.421875 72.90625 
L 64.984375 72.90625 
L 64.984375 0 
L 51.703125 0 
L 19.390625 60.984375 
L 19.390625 0 
L 9.8125 0 
z
" id="BitstreamVeraSans-Roman-4e"/>
    </defs>
    <g transform="translate(385.2890625 321.12)rotate(-90.0)scale(0.15 -0.15)">
     <use xlink:href="#BitstreamVeraSans-Roman-4e"/>
     <use x="74.8046875" xlink:href="#BitstreamVeraSans-Roman-65"/>
     <use x="136.328125" xlink:href="#BitstreamVeraSans-Roman-61"/>
     <use x="197.607421875" xlink:href="#BitstreamVeraSans-Roman-72"/>
     <use x="238.689453125" xlink:href="#BitstreamVeraSans-Roman-65"/>
     <use x="300.212890625" xlink:href="#BitstreamVeraSans-Roman-73"/>
     <use x="352.3125" xlink:href="#BitstreamVeraSans-Roman-74"/>
     <use x="391.521484375" xlink:href="#BitstreamVeraSans-Roman-20"/>
     <use x="423.30859375" xlink:href="#BitstreamVeraSans-Roman-4e"/>
     <use x="498.11328125" xlink:href="#BitstreamVeraSans-Roman-65"/>
     <use x="559.63671875" xlink:href="#BitstreamVeraSans-Roman-69"/>
     <use x="587.419921875" xlink:href="#BitstreamVeraSans-Roman-67"/>
     <use x="650.896484375" xlink:href="#BitstreamVeraSans-Roman-68"/>
     <use x="714.275390625" xlink:href="#BitstreamVeraSans-Roman-62"/>
     <use x="777.751953125" xlink:href="#BitstreamVeraSans-Roman-6f"/>
     <use x="838.93359375" xlink:href="#BitstreamVeraSans-Roman-72"/>
     <use x="880.046875" xlink:href="#BitstreamVeraSans-Roman-73"/>
    </g>
   </g>
   <g id="text_10">
    <!-- Logistic Regression -->
    <defs>
     <path d="M 9.8125 72.90625 
L 19.671875 72.90625 
L 19.671875 8.296875 
L 55.171875 8.296875 
L 55.171875 0 
L 9.8125 0 
z
" id="BitstreamVeraSans-Roman-4c"/>
     <path d="M 48.78125 52.59375 
L 48.78125 44.1875 
Q 44.96875 46.296875 41.140625 47.34375 
Q 37.3125 48.390625 33.40625 48.390625 
Q 24.65625 48.390625 19.8125 42.84375 
Q 14.984375 37.3125 14.984375 27.296875 
Q 14.984375 17.28125 19.8125 11.734375 
Q 24.65625 6.203125 33.40625 6.203125 
Q 37.3125 6.203125 41.140625 7.25 
Q 44.96875 8.296875 48.78125 10.40625 
L 48.78125 2.09375 
Q 45.015625 0.34375 40.984375 -0.53125 
Q 36.96875 -1.421875 32.421875 -1.421875 
Q 20.0625 -1.421875 12.78125 6.34375 
Q 5.515625 14.109375 5.515625 27.296875 
Q 5.515625 40.671875 12.859375 48.328125 
Q 20.21875 56 33.015625 56 
Q 37.15625 56 41.109375 55.140625 
Q 45.0625 54.296875 48.78125 52.59375 
" id="BitstreamVeraSans-Roman-63"/>
    </defs>
    <g transform="translate(496.8890625 321.12)rotate(-90.0)scale(0.15 -0.15)">
     <use xlink:href="#BitstreamVeraSans-Roman-4c"/>
     <use x="55.697265625" xlink:href="#BitstreamVeraSans-Roman-6f"/>
     <use x="116.87890625" xlink:href="#BitstreamVeraSans-Roman-67"/>
     <use x="180.35546875" xlink:href="#BitstreamVeraSans-Roman-69"/>
     <use x="208.138671875" xlink:href="#BitstreamVeraSans-Roman-73"/>
     <use x="260.23828125" xlink:href="#BitstreamVeraSans-Roman-74"/>
     <use x="299.447265625" xlink:href="#BitstreamVeraSans-Roman-69"/>
     <use x="327.23046875" xlink:href="#BitstreamVeraSans-Roman-63"/>
     <use x="382.2109375" xlink:href="#BitstreamVeraSans-Roman-20"/>
     <use x="413.998046875" xlink:href="#BitstreamVeraSans-Roman-52"/>
     <use x="483.41796875" xlink:href="#BitstreamVeraSans-Roman-65"/>
     <use x="544.94140625" xlink:href="#BitstreamVeraSans-Roman-67"/>
     <use x="608.41796875" xlink:href="#BitstreamVeraSans-Roman-72"/>
     <use x="649.5" xlink:href="#BitstreamVeraSans-Roman-65"/>
     <use x="711.0234375" xlink:href="#BitstreamVeraSans-Roman-73"/>
     <use x="763.123046875" xlink:href="#BitstreamVeraSans-Roman-73"/>
     <use x="815.22265625" xlink:href="#BitstreamVeraSans-Roman-69"/>
     <use x="843.005859375" xlink:href="#BitstreamVeraSans-Roman-6f"/>
     <use x="904.1875" xlink:href="#BitstreamVeraSans-Roman-6e"/>
    </g>
   </g>
   <g id="text_11">
    <!-- Linear SVM -->
    <g transform="translate(608.4890625 321.12)rotate(-90.0)scale(0.15 -0.15)">
     <use xlink:href="#BitstreamVeraSans-Roman-4c"/>
     <use x="55.712890625" xlink:href="#BitstreamVeraSans-Roman-69"/>
     <use x="83.49609375" xlink:href="#BitstreamVeraSans-Roman-6e"/>
     <use x="146.875" xlink:href="#BitstreamVeraSans-Roman-65"/>
     <use x="208.3984375" xlink:href="#BitstreamVeraSans-Roman-61"/>
     <use x="269.677734375" xlink:href="#BitstreamVeraSans-Roman-72"/>
     <use x="310.791015625" xlink:href="#BitstreamVeraSans-Roman-20"/>
     <use x="342.578125" xlink:href="#BitstreamVeraSans-Roman-53"/>
     <use x="406.0546875" xlink:href="#BitstreamVeraSans-Roman-56"/>
     <use x="474.462890625" xlink:href="#BitstreamVeraSans-Roman-4d"/>
    </g>
   </g>
   <g id="text_12">
    <!-- Voting -->
    <g transform="translate(720.0890625 321.12)rotate(-90.0)scale(0.15 -0.15)">
     <use xlink:href="#BitstreamVeraSans-Roman-56"/>
     <use x="68.298828125" xlink:href="#BitstreamVeraSans-Roman-6f"/>
     <use x="129.48046875" xlink:href="#BitstreamVeraSans-Roman-74"/>
     <use x="168.689453125" xlink:href="#BitstreamVeraSans-Roman-69"/>
     <use x="196.47265625" xlink:href="#BitstreamVeraSans-Roman-6e"/>
     <use x="259.8515625" xlink:href="#BitstreamVeraSans-Roman-67"/>
    </g>
   </g>
   <g id="text_13">
    <!-- Naive Bayes -->
    <defs>
     <path d="M 2.984375 54.6875 
L 12.5 54.6875 
L 29.59375 8.796875 
L 46.6875 54.6875 
L 56.203125 54.6875 
L 35.6875 0 
L 23.484375 0 
z
" id="BitstreamVeraSans-Roman-76"/>
     <path d="M 19.671875 34.8125 
L 19.671875 8.109375 
L 35.5 8.109375 
Q 43.453125 8.109375 47.28125 11.40625 
Q 51.125 14.703125 51.125 21.484375 
Q 51.125 28.328125 47.28125 31.5625 
Q 43.453125 34.8125 35.5 34.8125 
z
M 19.671875 64.796875 
L 19.671875 42.828125 
L 34.28125 42.828125 
Q 41.5 42.828125 45.03125 45.53125 
Q 48.578125 48.25 48.578125 53.8125 
Q 48.578125 59.328125 45.03125 62.0625 
Q 41.5 64.796875 34.28125 64.796875 
z
M 9.8125 72.90625 
L 35.015625 72.90625 
Q 46.296875 72.90625 52.390625 68.21875 
Q 58.5 63.53125 58.5 54.890625 
Q 58.5 48.1875 55.375 44.234375 
Q 52.25 40.28125 46.1875 39.3125 
Q 53.46875 37.75 57.5 32.78125 
Q 61.53125 27.828125 61.53125 20.40625 
Q 61.53125 10.640625 54.890625 5.3125 
Q 48.25 0 35.984375 0 
L 9.8125 0 
z
" id="BitstreamVeraSans-Roman-42"/>
     <path d="M 32.171875 -5.078125 
Q 28.375 -14.84375 24.75 -17.8125 
Q 21.140625 -20.796875 15.09375 -20.796875 
L 7.90625 -20.796875 
L 7.90625 -13.28125 
L 13.1875 -13.28125 
Q 16.890625 -13.28125 18.9375 -11.515625 
Q 21 -9.765625 23.484375 -3.21875 
L 25.09375 0.875 
L 2.984375 54.6875 
L 12.5 54.6875 
L 29.59375 11.921875 
L 46.6875 54.6875 
L 56.203125 54.6875 
z
" id="BitstreamVeraSans-Roman-79"/>
    </defs>
    <g transform="translate(831.6890625 321.12)rotate(-90.0)scale(0.15 -0.15)">
     <use xlink:href="#BitstreamVeraSans-Roman-4e"/>
     <use x="74.8046875" xlink:href="#BitstreamVeraSans-Roman-61"/>
     <use x="136.083984375" xlink:href="#BitstreamVeraSans-Roman-69"/>
     <use x="163.8671875" xlink:href="#BitstreamVeraSans-Roman-76"/>
     <use x="223.046875" xlink:href="#BitstreamVeraSans-Roman-65"/>
     <use x="284.5703125" xlink:href="#BitstreamVeraSans-Roman-20"/>
     <use x="316.357421875" xlink:href="#BitstreamVeraSans-Roman-42"/>
     <use x="384.9609375" xlink:href="#BitstreamVeraSans-Roman-61"/>
     <use x="446.240234375" xlink:href="#BitstreamVeraSans-Roman-79"/>
     <use x="505.419921875" xlink:href="#BitstreamVeraSans-Roman-65"/>
     <use x="566.943359375" xlink:href="#BitstreamVeraSans-Roman-73"/>
    </g>
   </g>
   <g id="text_14">
    <!-- Decision Tree -->
    <defs>
     <path d="M -0.296875 72.90625 
L 61.375 72.90625 
L 61.375 64.59375 
L 35.5 64.59375 
L 35.5 0 
L 25.59375 0 
L 25.59375 64.59375 
L -0.296875 64.59375 
z
" id="BitstreamVeraSans-Roman-54"/>
     <path d="M 19.671875 64.796875 
L 19.671875 8.109375 
L 31.59375 8.109375 
Q 46.6875 8.109375 53.6875 14.9375 
Q 60.6875 21.78125 60.6875 36.53125 
Q 60.6875 51.171875 53.6875 57.984375 
Q 46.6875 64.796875 31.59375 64.796875 
z
M 9.8125 72.90625 
L 30.078125 72.90625 
Q 51.265625 72.90625 61.171875 64.09375 
Q 71.09375 55.28125 71.09375 36.53125 
Q 71.09375 17.671875 61.125 8.828125 
Q 51.171875 0 30.078125 0 
L 9.8125 0 
z
" id="BitstreamVeraSans-Roman-44"/>
    </defs>
    <g transform="translate(943.2890625 321.12)rotate(-90.0)scale(0.15 -0.15)">
     <use xlink:href="#BitstreamVeraSans-Roman-44"/>
     <use x="77.001953125" xlink:href="#BitstreamVeraSans-Roman-65"/>
     <use x="138.525390625" xlink:href="#BitstreamVeraSans-Roman-63"/>
     <use x="193.505859375" xlink:href="#BitstreamVeraSans-Roman-69"/>
     <use x="221.2890625" xlink:href="#BitstreamVeraSans-Roman-73"/>
     <use x="273.388671875" xlink:href="#BitstreamVeraSans-Roman-69"/>
     <use x="301.171875" xlink:href="#BitstreamVeraSans-Roman-6f"/>
     <use x="362.353515625" xlink:href="#BitstreamVeraSans-Roman-6e"/>
     <use x="425.732421875" xlink:href="#BitstreamVeraSans-Roman-20"/>
     <use x="457.51953125" xlink:href="#BitstreamVeraSans-Roman-54"/>
     <use x="518.384765625" xlink:href="#BitstreamVeraSans-Roman-72"/>
     <use x="559.466796875" xlink:href="#BitstreamVeraSans-Roman-65"/>
     <use x="620.990234375" xlink:href="#BitstreamVeraSans-Roman-65"/>
    </g>
   </g>
   <g id="legend_1">
    <g id="patch_23">
     <path d="M 457.635937 27.368 
L 727.164062 27.368 
Q 730.044062 27.368 730.044062 24.488 
L 730.044062 4.88 
Q 730.044062 2 727.164062 2 
L 457.635937 2 
Q 454.755937 2 454.755937 4.88 
L 454.755937 24.488 
Q 454.755937 27.368 457.635937 27.368 
z
" style="fill:#4c4c4c;opacity:0.5;stroke:#4c4c4c;stroke-linejoin:miter;"/>
    </g>
    <g id="patch_24">
     <path d="M 455.635937 25.368 
L 725.164062 25.368 
Q 728.044062 25.368 728.044062 22.488 
L 728.044062 2.88 
Q 728.044062 0 725.164062 0 
L 455.635937 0 
Q 452.755937 0 452.755937 2.88 
L 452.755937 22.488 
Q 452.755937 25.368 455.635937 25.368 
z
" style="fill:#ffffff;stroke:#000000;stroke-linejoin:miter;"/>
    </g>
    <g id="patch_25">
     <path d="M 458.515937 16.70175 
L 487.315937 16.70175 
L 487.315937 6.62175 
L 458.515937 6.62175 
z
" style="fill:#f7fbff;opacity:0.7;stroke:#000000;stroke-linejoin:miter;"/>
    </g>
    <g id="text_15">
     <!-- Train score -->
     <g transform="translate(498.8359375 16.70175)scale(0.144 -0.144)">
      <use xlink:href="#BitstreamVeraSans-Roman-54"/>
      <use x="60.865234375" xlink:href="#BitstreamVeraSans-Roman-72"/>
      <use x="101.978515625" xlink:href="#BitstreamVeraSans-Roman-61"/>
      <use x="163.2578125" xlink:href="#BitstreamVeraSans-Roman-69"/>
      <use x="191.041015625" xlink:href="#BitstreamVeraSans-Roman-6e"/>
      <use x="254.419921875" xlink:href="#BitstreamVeraSans-Roman-20"/>
      <use x="286.20703125" xlink:href="#BitstreamVeraSans-Roman-73"/>
      <use x="338.306640625" xlink:href="#BitstreamVeraSans-Roman-63"/>
      <use x="393.287109375" xlink:href="#BitstreamVeraSans-Roman-6f"/>
      <use x="454.46875" xlink:href="#BitstreamVeraSans-Roman-72"/>
      <use x="495.55078125" xlink:href="#BitstreamVeraSans-Roman-65"/>
     </g>
    </g>
    <g id="patch_26">
     <path d="M 607.729687 16.70175 
L 636.529687 16.70175 
L 636.529687 6.62175 
L 607.729687 6.62175 
z
" style="fill:#08306b;opacity:0.7;stroke:#000000;stroke-linejoin:miter;"/>
    </g>
    <g id="text_16">
     <!-- Test score -->
     <g transform="translate(648.0496875 16.70175)scale(0.144 -0.144)">
      <use xlink:href="#BitstreamVeraSans-Roman-54"/>
      <use x="60.818359375" xlink:href="#BitstreamVeraSans-Roman-65"/>
      <use x="122.341796875" xlink:href="#BitstreamVeraSans-Roman-73"/>
      <use x="174.44140625" xlink:href="#BitstreamVeraSans-Roman-74"/>
      <use x="213.650390625" xlink:href="#BitstreamVeraSans-Roman-20"/>
      <use x="245.4375" xlink:href="#BitstreamVeraSans-Roman-73"/>
      <use x="297.537109375" xlink:href="#BitstreamVeraSans-Roman-63"/>
      <use x="352.517578125" xlink:href="#BitstreamVeraSans-Roman-6f"/>
      <use x="413.69921875" xlink:href="#BitstreamVeraSans-Roman-72"/>
      <use x="454.78125" xlink:href="#BitstreamVeraSans-Roman-65"/>
     </g>
    </g>
   </g>
  </g>
 </g>
 <defs>
  <clipPath id="p70b1a336b5">
   <rect height="288.0" width="892.8" x="144.0" y="36.0"/>
  </clipPath>
 </defs>
</svg>
